<svg xmlns="http://www.w3.org/2000/svg" viewBox="0 0 900 780"><defs><linearGradient id="wall" x2="1" y2="1"><stop stop-color="#e9e1d0"/><stop offset="1" stop-color="#c8c2ae"/></linearGradient><linearGradient id="wood" x2="0" y2="1"><stop stop-color="#c5a57a"/><stop offset="1" stop-color="#a78458"/></linearGradient><filter id="shadow"><feGaussianBlur stdDeviation="14"/></filter></defs><path fill="url(#wall)" d="M0 0H900V780H0Z"/><path d="M20 0L510 0L820 535L310 535Z" fill="#fff8e5" opacity=".4"/><path d="M205 0L490 540M370 0L665 540" stroke="#b9b39e" stroke-width="14" opacity=".25"/><path d="M0 490L600 410L900 522V780H0Z" fill="#c9b28e"/><path d="M0 532L630 449L900 550" stroke="#ab916d" fill="none"/><ellipse cx="455" cy="546" rx="307" ry="44" fill="#706d54" opacity=".25" filter="url(#shadow)"/><path d="M120 494L438 446L668 502L350 564Z" fill="url(#wood)"/><path d="M120 494V515L350 584V564Z" fill="#ac875a"/><path d="M350 564V584L668 523V502Z" fill="#b39268"/><path d="M146 522V582L180 592V531M609 536V582L640 576V530" fill="#a28057"/><path d="M218 433V227L506 199V410Z" fill="#34463b"/><path d="M232 239L492 215V396L232 418Z" fill="#a2ac92"/><path d="M232 366Q325 280 405 339T492 284V396L232 418Z" fill="#889b7d"/><path d="M232 391Q361 320 492 370V396L232 418Z" fill="#718668"/><circle cx="435" cy="261" r="20" fill="#c8cdb2"/><path d="M350 422V467L396 460V418" fill="#63715e"/><path d="M311 476L396 459L442 477L353 494Z" fill="#63715e"/><ellipse cx="733" cy="528" rx="65" ry="16" fill="#46533e"/><path d="M733 520V326L671 259" stroke="#49583f" stroke-width="14" fill="none"/><circle cx="733" cy="326" r="12" fill="#6b775c"/><path d="M631 236Q665 186 701 225L722 275Q673 300 621 273Z" fill="#536147"/><ellipse cx="672" cy="275" rx="51" ry="14" fill="#dbd2ae"/><path d="M318 617L556 567L709 615L465 670Z" fill="#646d5d"/><path d="M383 612L490 590L570 614L460 639Z" fill="#dedccc"/><path d="M68 509L79 579Q107 597 135 576L146 504Z" fill="#bf9f77"/><ellipse cx="107" cy="505" rx="39" ry="12" fill="#8e7758"/><path d="M97 510L88 421M117 508L132 431" stroke="#546447" stroke-width="9"/><path d="M753 615L825 601L877 621L800 640Z" fill="#a2694e"/><path d="M753 615V626L800 652L877 633V621L800 640Z" fill="#e5dac2"/></svg>